<?xml version="1.0" encoding="utf-8"?>
<!-- Generator: Adobe Illustrator 17.0.0, SVG Export Plug-In . SVG Version: 6.00 Build 0)  -->
<!DOCTYPE svg PUBLIC "-//W3C//DTD SVG 1.1//EN" "http://www.w3.org/Graphics/SVG/1.1/DTD/svg11.dtd">
<svg version="1.1"
	 id="svg5221" sodipodi:docname="New document 7" inkscape:version="0.48.2 r9819" xmlns:svg="http://www.w3.org/2000/svg" xmlns:rdf="http://www.w3.org/1999/02/22-rdf-syntax-ns#" xmlns:sodipodi="http://sodipodi.sourceforge.net/DTD/sodipodi-0.dtd" xmlns:inkscape="http://www.inkscape.org/namespaces/inkscape" xmlns:dc="http://purl.org/dc/elements/1.1/" xmlns:cc="http://creativecommons.org/ns#"
	 xmlns="http://www.w3.org/2000/svg" xmlns:xlink="http://www.w3.org/1999/xlink" x="0px" y="0px" width="750px" height="350px"
	 viewBox="0 0 750 350" enable-background="new 0 0 750 350" xml:space="preserve">
<sodipodi:namedview  inkscape:window-maximized="1" inkscape:window-y="-8" inkscape:window-x="-8" inkscape:window-height="972" inkscape:window-width="1280" inkscape:current-layer="layer1" inkscape:document-units="px" inkscape:pageopacity="0.0" fit-margin-right="0" fit-margin-bottom="0" inkscape:pageshadow="2" inkscape:cy="-73.08652" inkscape:cx="294.80056" fit-margin-top="0" showgrid="false" id="base" fit-margin-left="0" inkscape:zoom="0.35" borderopacity="1.0" bordercolor="#666666" pagecolor="#ffffff">
	</sodipodi:namedview>
<g id="layer1" transform="translate(-20.85323,-5.2193005)" inkscape:label="Layer 1" inkscape:groupmode="layer">
	<g id="g5303" transform="translate(37.142857,-88.571429)">
		<rect id="rect7911" x="154.286" y="260.384" fill="#C0392B" width="365.714" height="68.571"/>
		
			<path id="path7933" inkscape:flatsided="false" inkscape:rounded="0" inkscape:randomized="0" inkscape:transform-center-x="-0.00021038516" inkscape:transform-center-y="-5.4017934" sodipodi:arg1="0.78539816" sodipodi:cx="1000" sodipodi:cy="1272.5215" sodipodi:r1="28.284271" sodipodi:sides="5" sodipodi:arg2="1.4137167" sodipodi:type="star" sodipodi:r2="14.142136" display="none" fill="#800000" d="
			M204.431,114.171l16.625,33.686l37.175,5.402l-26.9,26.221l6.35,37.025l-33.25-17.481l-33.25,17.481l6.35-37.025l-26.9-26.221
			l37.175-5.402L204.431,114.171z"/>
		<polygon fill="#C0392B" points="237.763,214.738 204.426,190.645 171.211,214.905 183.823,175.755 150.487,151.662 
			191.618,151.559 204.23,112.408 217.039,151.495 258.17,151.392 224.955,175.652 		"/>
		<polygon fill="#C0392B" points="366.179,216.419 332.842,192.326 299.627,216.586 312.239,177.436 278.902,153.343 
			320.034,153.24 332.646,114.09 345.454,153.176 386.586,153.073 353.37,177.333 		"/>
		<polygon fill="#C0392B" points="494.491,218.042 461.155,193.949 427.939,218.209 440.551,179.059 407.215,154.966 
			448.346,154.863 460.958,115.712 473.767,154.799 514.898,154.696 481.683,178.956 		"/>
		
			<path id="path7933-3" inkscape:flatsided="false" inkscape:rounded="0" inkscape:randomized="0" inkscape:transform-center-x="-0.00021028516" inkscape:transform-center-y="-5.4017934" sodipodi:arg1="0.78539816" sodipodi:cx="1000" sodipodi:cy="1272.5215" sodipodi:r1="28.284271" sodipodi:sides="5" sodipodi:arg2="1.4137167" sodipodi:type="star" sodipodi:r2="14.142136" display="none" fill="#800000" d="
			M332.744,114.171l16.625,33.686l37.175,5.402l-26.9,26.221l6.35,37.025l-33.25-17.481l-33.25,17.481l6.35-37.025l-26.9-26.221
			l37.175-5.402L332.744,114.171z"/>
		
			<text transform="matrix(0.7287 0 0 1 519.9998 386.2093)" fill="#353740" font-family="'SourceCodePro-Bold'" font-size="247.3472">/&gt;</text>
		
			<text transform="matrix(0.7287 0 0 1 -5.0788 386.2093)" fill="#353740" font-family="'SourceCodePro-Bold'" font-size="247.3472">&lt;</text>
		<rect id="rect7911-6" x="154.286" y="355.219" fill="#C0392B" width="365.714" height="68.571"/>
	</g>
</g>
</svg>
